<?xml version="1.0" encoding="UTF-8"?>
<svg xmlns="http://www.w3.org/2000/svg" xmlns:xlink="http://www.w3.org/1999/xlink" width="270" height="480" viewBox="0 0 270 480">
<defs>
<g>
<g id="glyph-0-0">
<path d="M 4.039062 -4.195312 C 4.039062 -4.027344 3.996094 -3.882812 3.914062 -3.753906 C 3.835938 -3.625 3.710938 -3.558594 3.539062 -3.558594 C 3.359375 -3.558594 3.21875 -3.605469 3.121094 -3.703125 C 3.027344 -3.796875 2.976562 -3.898438 2.976562 -4.015625 C 2.976562 -4.085938 2.984375 -4.148438 2.996094 -4.210938 C 3.007812 -4.265625 3.015625 -4.328125 3.027344 -4.382812 C 2.875 -4.382812 2.695312 -4.324219 2.492188 -4.199219 C 2.285156 -4.074219 2.109375 -3.898438 1.96875 -3.671875 L 1.96875 -0.867188 C 1.96875 -0.753906 1.988281 -0.664062 2.035156 -0.589844 C 2.078125 -0.519531 2.148438 -0.464844 2.242188 -0.429688 C 2.324219 -0.398438 2.425781 -0.371094 2.554688 -0.355469 C 2.683594 -0.339844 2.796875 -0.328125 2.890625 -0.320312 L 2.890625 0 L 0.351562 0 L 0.351562 -0.320312 C 0.425781 -0.328125 0.503906 -0.335938 0.582031 -0.34375 C 0.664062 -0.347656 0.734375 -0.359375 0.789062 -0.378906 C 0.882812 -0.410156 0.949219 -0.460938 0.992188 -0.535156 C 1.039062 -0.609375 1.058594 -0.703125 1.058594 -0.820312 L 1.058594 -3.789062 C 1.058594 -3.890625 1.035156 -3.988281 0.988281 -4.085938 C 0.941406 -4.183594 0.875 -4.261719 0.789062 -4.320312 C 0.730469 -4.359375 0.65625 -4.390625 0.570312 -4.40625 C 0.488281 -4.425781 0.394531 -4.4375 0.296875 -4.445312 L 0.296875 -4.765625 L 1.898438 -4.875 L 1.96875 -4.804688 L 1.96875 -4.125 L 1.992188 -4.125 C 2.195312 -4.390625 2.417969 -4.589844 2.664062 -4.726562 C 2.914062 -4.863281 3.140625 -4.929688 3.34375 -4.929688 C 3.550781 -4.929688 3.714844 -4.863281 3.84375 -4.730469 C 3.972656 -4.597656 4.039062 -4.417969 4.039062 -4.195312 Z "/>
</g>
<g id="glyph-0-1">
<path d="M 5.046875 -2.457031 C 5.046875 -2.117188 4.996094 -1.785156 4.886719 -1.457031 C 4.78125 -1.128906 4.625 -0.851562 4.429688 -0.625 C 4.203125 -0.363281 3.941406 -0.171875 3.644531 -0.0429688 C 3.347656 0.0820312 3.015625 0.144531 2.648438 0.148438 C 2.34375 0.144531 2.050781 0.0898438 1.773438 -0.0273438 C 1.496094 -0.140625 1.25 -0.3125 1.035156 -0.53125 C 0.824219 -0.75 0.65625 -1.015625 0.53125 -1.332031 C 0.40625 -1.644531 0.34375 -1.996094 0.34375 -2.386719 C 0.34375 -3.140625 0.5625 -3.753906 1 -4.234375 C 1.4375 -4.710938 2.011719 -4.949219 2.722656 -4.953125 C 3.398438 -4.949219 3.953125 -4.722656 4.390625 -4.269531 C 4.828125 -3.816406 5.046875 -3.210938 5.046875 -2.457031 M 4.039062 -2.445312 C 4.039062 -2.691406 4.011719 -2.949219 3.964844 -3.21875 C 3.914062 -3.492188 3.84375 -3.722656 3.746094 -3.910156 C 3.640625 -4.113281 3.503906 -4.273438 3.332031 -4.398438 C 3.164062 -4.519531 2.957031 -4.578125 2.710938 -4.578125 C 2.460938 -4.578125 2.246094 -4.519531 2.070312 -4.394531 C 1.890625 -4.269531 1.746094 -4.101562 1.636719 -3.886719 C 1.53125 -3.6875 1.457031 -3.460938 1.417969 -3.207031 C 1.375 -2.953125 1.351562 -2.707031 1.351562 -2.46875 C 1.351562 -2.15625 1.378906 -1.871094 1.429688 -1.605469 C 1.480469 -1.339844 1.558594 -1.101562 1.671875 -0.894531 C 1.78125 -0.683594 1.921875 -0.523438 2.089844 -0.402344 C 2.257812 -0.285156 2.464844 -0.226562 2.710938 -0.226562 C 3.121094 -0.226562 3.441406 -0.421875 3.679688 -0.816406 C 3.917969 -1.210938 4.039062 -1.753906 4.039062 -2.445312 Z "/>
</g>
<g id="glyph-0-2">
<path d="M 2.609375 0 L 0.257812 0 L 0.257812 -0.320312 C 0.332031 -0.328125 0.414062 -0.335938 0.5 -0.34375 C 0.582031 -0.351562 0.652344 -0.363281 0.707031 -0.382812 C 0.800781 -0.410156 0.867188 -0.460938 0.914062 -0.535156 C 0.957031 -0.609375 0.980469 -0.703125 0.980469 -0.820312 L 0.980469 -6.402344 C 0.980469 -6.519531 0.957031 -6.628906 0.90625 -6.730469 C 0.855469 -6.832031 0.789062 -6.914062 0.707031 -6.972656 C 0.648438 -7.011719 0.542969 -7.046875 0.386719 -7.078125 C 0.230469 -7.113281 0.105469 -7.132812 0.0078125 -7.140625 L 0.0078125 -7.453125 L 1.820312 -7.558594 L 1.890625 -7.484375 L 1.890625 -0.878906 C 1.890625 -0.765625 1.910156 -0.671875 1.953125 -0.597656 C 1.996094 -0.523438 2.0625 -0.46875 2.15625 -0.429688 C 2.230469 -0.398438 2.300781 -0.371094 2.371094 -0.355469 C 2.441406 -0.339844 2.519531 -0.328125 2.609375 -0.320312 Z "/>
</g>
</g>
</defs>
<g fill="rgb(87.843137%, 87.843137%, 89.019608%)" fill-opacity="1">
<use xlink:href="#glyph-0-0" x="30" y="29.169922"/>
<use xlink:href="#glyph-0-1" x="34" y="29.169922"/>
<use xlink:href="#glyph-0-2" x="39" y="29.169922"/>
<use xlink:href="#glyph-0-2" x="42" y="29.169922"/>
</g>
</svg>
