<?xml version="1.0" encoding="UTF-8"?>
<svg xmlns="http://www.w3.org/2000/svg" xmlns:xlink="http://www.w3.org/1999/xlink" width="270" height="480" viewBox="0 0 270 480">
<defs>
<g>
<g id="glyph-0-0">
<path d="M 11.449219 -6.539062 C 11.347656 -6.527344 11.25 -6.507812 11.148438 -6.472656 C 11.046875 -6.4375 10.945312 -6.394531 10.851562 -6.34375 C 10.699219 -6.257812 10.59375 -6.164062 10.53125 -6.0625 C 10.464844 -5.964844 10.410156 -5.839844 10.355469 -5.699219 C 10.175781 -5.203125 9.902344 -4.410156 9.527344 -3.320312 C 9.15625 -2.230469 8.769531 -1.097656 8.363281 0.078125 L 7.378906 0.078125 L 5.554688 -5.070312 L 3.90625 0.078125 L 2.921875 0.078125 C 2.375 -1.503906 1.960938 -2.722656 1.671875 -3.578125 C 1.378906 -4.429688 1.136719 -5.148438 0.9375 -5.726562 C 0.875 -5.902344 0.804688 -6.03125 0.726562 -6.109375 C 0.648438 -6.191406 0.546875 -6.269531 0.425781 -6.351562 C 0.335938 -6.410156 0.242188 -6.453125 0.144531 -6.480469 C 0.0429688 -6.507812 -0.0703125 -6.53125 -0.199219 -6.546875 L -0.199219 -6.929688 L 3.496094 -6.929688 L 3.496094 -6.558594 C 3.277344 -6.53125 3.117188 -6.507812 3.007812 -6.480469 C 2.902344 -6.457031 2.816406 -6.433594 2.753906 -6.40625 C 2.695312 -6.378906 2.660156 -6.351562 2.648438 -6.324219 C 2.636719 -6.292969 2.628906 -6.269531 2.628906 -6.246094 C 2.628906 -6.199219 2.632812 -6.15625 2.644531 -6.113281 C 2.65625 -6.070312 2.667969 -6.023438 2.683594 -5.96875 C 2.761719 -5.714844 2.917969 -5.230469 3.15625 -4.523438 C 3.394531 -3.8125 3.6875 -2.933594 4.035156 -1.882812 L 5.613281 -6.929688 L 6.648438 -6.929688 L 8.472656 -1.722656 C 8.746094 -2.558594 8.960938 -3.242188 9.121094 -3.773438 C 9.28125 -4.304688 9.417969 -4.757812 9.527344 -5.136719 C 9.59375 -5.367188 9.644531 -5.5625 9.683594 -5.71875 C 9.722656 -5.875 9.742188 -6.007812 9.742188 -6.125 C 9.742188 -6.191406 9.710938 -6.25 9.648438 -6.296875 C 9.585938 -6.347656 9.5 -6.390625 9.394531 -6.425781 C 9.300781 -6.453125 9.183594 -6.480469 9.039062 -6.496094 C 8.894531 -6.515625 8.769531 -6.527344 8.664062 -6.539062 L 8.664062 -6.929688 L 11.449219 -6.929688 Z "/>
</g>
<g id="glyph-0-1">
<path d="M 6.632812 0 L 3.695312 0 L 3.695312 -0.355469 C 3.761719 -0.363281 3.835938 -0.371094 3.925781 -0.382812 C 4.011719 -0.390625 4.078125 -0.40625 4.121094 -0.429688 C 4.1875 -0.464844 4.238281 -0.515625 4.265625 -0.585938 C 4.292969 -0.65625 4.304688 -0.753906 4.304688 -0.890625 L 4.304688 -3.171875 C 4.304688 -3.507812 4.242188 -3.757812 4.117188 -3.925781 C 3.992188 -4.089844 3.816406 -4.175781 3.585938 -4.175781 C 3.453125 -4.175781 3.332031 -4.15625 3.21875 -4.117188 C 3.109375 -4.078125 3 -4.019531 2.890625 -3.945312 C 2.796875 -3.878906 2.71875 -3.8125 2.664062 -3.746094 C 2.605469 -3.675781 2.558594 -3.617188 2.519531 -3.5625 L 2.519531 -0.941406 C 2.519531 -0.820312 2.535156 -0.726562 2.5625 -0.65625 C 2.59375 -0.585938 2.648438 -0.527344 2.730469 -0.484375 C 2.777344 -0.453125 2.84375 -0.429688 2.921875 -0.40625 C 3.003906 -0.382812 3.078125 -0.367188 3.15625 -0.355469 L 3.15625 0 L 0.175781 0 L 0.175781 -0.355469 C 0.261719 -0.363281 0.34375 -0.371094 0.425781 -0.382812 C 0.503906 -0.390625 0.574219 -0.40625 0.636719 -0.429688 C 0.742188 -0.46875 0.8125 -0.523438 0.851562 -0.597656 C 0.890625 -0.671875 0.90625 -0.769531 0.90625 -0.890625 L 0.90625 -6.332031 C 0.90625 -6.4375 0.882812 -6.546875 0.835938 -6.664062 C 0.785156 -6.78125 0.71875 -6.871094 0.628906 -6.929688 C 0.566406 -6.972656 0.46875 -7.003906 0.347656 -7.027344 C 0.222656 -7.054688 0.113281 -7.070312 0.015625 -7.074219 L 0.015625 -7.429688 L 2.445312 -7.558594 L 2.519531 -7.480469 L 2.519531 -4.121094 L 2.539062 -4.121094 C 2.664062 -4.230469 2.773438 -4.332031 2.871094 -4.421875 C 2.972656 -4.511719 3.09375 -4.601562 3.234375 -4.691406 C 3.355469 -4.769531 3.511719 -4.835938 3.707031 -4.890625 C 3.898438 -4.949219 4.109375 -4.976562 4.332031 -4.976562 C 4.859375 -4.976562 5.253906 -4.824219 5.519531 -4.523438 C 5.785156 -4.21875 5.917969 -3.820312 5.917969 -3.324219 L 5.917969 -0.933594 C 5.917969 -0.8125 5.9375 -0.714844 5.972656 -0.644531 C 6.007812 -0.574219 6.074219 -0.515625 6.171875 -0.472656 C 6.230469 -0.449219 6.296875 -0.425781 6.367188 -0.40625 C 6.4375 -0.386719 6.527344 -0.371094 6.632812 -0.355469 Z "/>
</g>
<g id="glyph-0-2">
<path d="M 5.800781 -4.488281 C 5.65625 -4.464844 5.511719 -4.410156 5.375 -4.320312 C 5.234375 -4.234375 5.121094 -4.097656 5.03125 -3.910156 C 4.75 -3.320312 4.460938 -2.6875 4.164062 -2.019531 C 3.867188 -1.351562 3.539062 -0.625 3.179688 0.152344 C 2.976562 0.585938 2.78125 0.9375 2.59375 1.195312 C 2.402344 1.457031 2.226562 1.65625 2.0625 1.796875 C 1.90625 1.925781 1.75 2.019531 1.597656 2.078125 C 1.445312 2.136719 1.289062 2.167969 1.132812 2.167969 C 0.824219 2.167969 0.574219 2.082031 0.382812 1.910156 C 0.191406 1.738281 0.0976562 1.542969 0.0976562 1.328125 C 0.0976562 1.238281 0.109375 1.152344 0.128906 1.074219 C 0.152344 0.996094 0.195312 0.914062 0.261719 0.828125 C 0.316406 0.757812 0.394531 0.699219 0.503906 0.648438 C 0.613281 0.597656 0.738281 0.570312 0.875 0.570312 C 1.054688 0.570312 1.230469 0.632812 1.394531 0.761719 C 1.5625 0.886719 1.734375 1.0625 1.914062 1.289062 C 2.019531 1.179688 2.152344 1.019531 2.3125 0.808594 C 2.46875 0.59375 2.585938 0.375 2.660156 0.148438 C 2.273438 -0.664062 1.929688 -1.371094 1.628906 -1.96875 C 1.332031 -2.5625 0.996094 -3.230469 0.625 -3.964844 C 0.542969 -4.121094 0.433594 -4.242188 0.296875 -4.328125 C 0.160156 -4.414062 0.015625 -4.46875 -0.136719 -4.488281 L -0.136719 -4.84375 L 2.851562 -4.84375 L 2.851562 -4.488281 C 2.742188 -4.484375 2.613281 -4.460938 2.46875 -4.414062 C 2.324219 -4.367188 2.253906 -4.308594 2.253906 -4.238281 C 2.253906 -4.210938 2.257812 -4.183594 2.265625 -4.152344 C 2.277344 -4.121094 2.292969 -4.078125 2.320312 -4.019531 C 2.429688 -3.792969 2.589844 -3.476562 2.792969 -3.070312 C 2.996094 -2.667969 3.230469 -2.195312 3.5 -1.652344 C 3.703125 -2.113281 3.875 -2.511719 4.015625 -2.84375 C 4.15625 -3.175781 4.292969 -3.503906 4.425781 -3.824219 C 4.460938 -3.90625 4.480469 -3.96875 4.484375 -4.015625 C 4.488281 -4.0625 4.492188 -4.09375 4.492188 -4.109375 C 4.492188 -4.171875 4.460938 -4.222656 4.40625 -4.265625 C 4.347656 -4.308594 4.28125 -4.347656 4.203125 -4.378906 C 4.121094 -4.414062 4.042969 -4.4375 3.96875 -4.453125 C 3.894531 -4.46875 3.832031 -4.480469 3.785156 -4.488281 L 3.785156 -4.84375 L 5.800781 -4.84375 Z "/>
</g>
</g>
</defs>
<g fill="rgb(87.843137%, 87.843137%, 89.019608%)" fill-opacity="1">
<use xlink:href="#glyph-0-0" x="30" y="29.169922"/>
<use xlink:href="#glyph-0-1" x="41" y="29.169922"/>
<use xlink:href="#glyph-0-2" x="48" y="29.169922"/>
</g>
</svg>
